<svg xmlns="http://www.w3.org/2000/svg" version="1.1" xmlns:xlink="http://www.w3.org/1999/xlink" xmlns:svgjs="http://svgjs.dev/svgjs" width="1440" height="560" preserveAspectRatio="none" viewBox="0 0 1440 560"><g mask="url(&quot;#SvgjsMask1572&quot;)" fill="none"><rect width="1440" height="560" x="0" y="0" fill="url(&quot;#SvgjsLinearGradient1573&quot;)"></rect><path d="M 0,67 C 57.6,82.6 172.8,147.4 288,145 C 403.2,142.6 460.8,39.6 576,55 C 691.2,70.4 748.8,208.2 864,222 C 979.2,235.8 1036.8,115.6 1152,124 C 1267.2,132.4 1382.4,236 1440,264L1440 560L0 560z" fill="rgba(105, 118, 152, 1)"></path><path d="M 0,465 C 36,455 108,397.2 180,415 C 252,432.8 288,570.8 360,554 C 432,537.2 468,333 540,331 C 612,329 648,546.8 720,544 C 792,541.2 828,333.6 900,317 C 972,300.4 1008,466.6 1080,461 C 1152,455.4 1188,281 1260,289 C 1332,297 1404,458.6 1440,501L1440 560L0 560z" fill="rgba(177, 212, 173, 1)"></path></g><defs><mask id="SvgjsMask1572"><rect width="1440" height="560" fill="#ffffff"></rect></mask><linearGradient x1="15.28%" y1="-39.29%" x2="84.72%" y2="139.29%" gradientUnits="userSpaceOnUse" id="SvgjsLinearGradient1573"><stop stop-color="#0e2a47" offset="0"></stop><stop stop-color="rgba(250, 250, 247, 1)" offset="1"></stop></linearGradient></defs></svg>